[img]http://img84.imageshack.us/img84/5909/71651.jpg[/img]
 
http://www.imdb.com/title/tt1302011/

Audio: English-Dutch 

Subs: English-Dutch.

Source: KUNG.FU.PANDA.2.(2011).1080P.X264.NL.AUDIO.BRADJE (thanks).

Sample and Screens included.

General
Complete name                    : Kung Fu Panda 2-MP4 AAC Dual Audio BRRip-CC\Kung Fu Panda 2-MP4 AAC Dual Audio BRRip-CC.mp4
Format                           : MPEG-4
Format profile                   : Base Media
Codec ID                         : isom
File size                        : 1.69 GiB
Duration                         : 1h 30mn
Overall bit rate                 : 2 679 Kbps
Encoded date                     : UTC 2011-10-20 09:45:14
Tagged date                      : UTC 2011-10-20 09:45:14
Writing application              : Yamb 2.1.0.0 

Video
ID                               : 1
Format                           : AVC
Format/Info                      : Advanced Video Codec
Format profile                   : Main@L3.0
Format settings, CABAC           : Yes
Format settings, ReFrames        : 1 frame
Codec ID                         : avc1
Codec ID/Info                    : Advanced Video Coding
Duration                         : 1h 30mn
Bit rate mode                    : Variable
Bit rate                         : 2 290 Kbps
Maximum bit rate                 : 7 042 Kbps
Width                            : 720 pixels
Height                           : 304 pixels
Display aspect ratio             : 2.35:1
Frame rate mode                  : Variable
Frame rate                       : 23.976 fps
Minimum frame rate               : 23.976 fps
Maximum frame rate               : 23.988 fps
Resolution                       : 8 bits
Colorimetry                      : 4:2:0
Scan type                        : Progressive
Bits/(Pixel*Frame)               : 0.436
Stream size                      : 1.45 GiB (85%)
Writing library                  : x264 core 65
Encoding settings                : cabac=1 / ref=1 / deblock=1:0:0 / analyse=0x1:0x111 / me=hex / subme=6 / psy_rd=1.0:0.0 / mixed_ref=0 / me_range=16 / chroma_me=1 / trellis=0 / 8x8dct=0 / cqm=0 / deadzone=21,11 / chroma_qp_offset=-2 / threads=3 / nr=0 / decimate=1 / mbaff=0 / bframes=0 / keyint=240 / keyint_min=24 / scenecut=40(pre) / rc=2pass / bitrate=2290 / ratetol=1.0 / qcomp=0.60 / qpmin=10 / qpmax=51 / qpstep=4 / cplxblur=20.0 / qblur=0.5 / ip_ratio=1.40 / aq=1:1.00
Encoded date                     : UTC 2011-10-21 07:46:46
Tagged date                      : UTC 2011-10-20 09:46:49
Color primaries                  : BT.601-6 525, BT.1358 525, BT.1700 NTSC, SMPTE 170M
Transfer characteristics         : BT.709-5, BT.1361
Matrix coefficients              : BT.601-6 525, BT.1358 525, BT.1700 NTSC, SMPTE 170M

Audio #1
ID                               : 2
Format                           : AAC
Format/Info                      : Advanced Audio Codec
Format version                   : Version 4
Format profile                   : LC
Format settings, SBR             : No
Codec ID                         : 40
Duration                         : 1h 30mn
Bit rate mode                    : Variable
Bit rate                         : 192 Kbps
Maximum bit rate                 : 256 Kbps
Channel(s)                       : 6 channels
Channel positions                : Front: L C R, Rear: L R, LFE
Sampling rate                    : 48.0 KHz
Stream size                      : 124 MiB (7%)
Language                         : English
Encoded date                     : UTC 2011-10-20 09:46:17
Tagged date                      : UTC 2011-10-20 09:46:49

Audio #2
ID                               : 3
Format                           : AAC
Format/Info                      : Advanced Audio Codec
Format version                   : Version 4
Format profile                   : LC
Format settings, SBR             : No
Codec ID                         : 40
Duration                         : 1h 30mn
Bit rate mode                    : Variable
Bit rate                         : 192 Kbps
Maximum bit rate                 : 250 Kbps
Channel(s)                       : 6 channels
Channel positions                : Front: L C R, Rear: L R, LFE
Sampling rate                    : 48.0 KHz
Stream size                      : 124 MiB (7%)
Language                         : Dutch
Encoded date                     : UTC 2011-10-20 09:46:38
Tagged date                      : UTC 2011-10-20 09:46:49

[img]http://img17.imageshack.us/img17/5865/kungfupanda2mp4aacduala.jpg[/img]